<svg width="72" height="72" viewBox="0 0 72 72" fill="none" xmlns="http://www.w3.org/2000/svg">
<path d="M70.842 1.3682C70.6267 0.847379 70.2129 0.427233 69.6868 0.195165C69.1606 -0.0369027 68.5626 -0.0630236 68.0171 0.122236C67.4716 0.307496 67.0207 0.689873 66.7581 1.18982C66.4955 1.68977 66.4415 2.26879 66.6073 2.80643C70.0552 12.4307 63.2114 19.6182 57.9932 23.4679L55.8851 20.5338C55.1762 19.5497 53.5915 18.7315 52.3593 18.7171L40.5274 18.7676C39.082 18.8099 37.6753 19.2309 36.456 19.9859L1.59127 43.7293C0.780317 44.2836 0.228525 45.1273 0.0567108 46.0759C-0.115103 47.0244 0.107061 48.0004 0.674562 48.7902L16.5185 70.807C17.7061 72.4471 19.6026 72.2488 21.295 71.1026L56.1598 47.3556C57.1618 46.6671 58.3198 45.182 58.728 44.0465L62.432 32.7101C62.8403 31.5783 62.5916 29.8517 61.8827 28.8676L60.5986 27.0797C67.6057 21.8639 74.88 12.647 70.842 1.3682ZM54.6195 35.0999C53.9772 35.5366 53.2527 35.8461 52.4872 36.0107C51.7217 36.1753 50.9303 36.1917 50.1583 36.0592C49.3862 35.9266 48.6486 35.6476 47.9877 35.2381C47.3267 34.8286 46.7553 34.2966 46.306 33.6725C45.3965 32.4097 45.04 30.8479 45.3149 29.3301C45.5897 27.8122 46.4734 26.4623 47.772 25.5766C48.7901 24.8839 50.0056 24.5174 51.2486 24.5284C52.4916 24.5394 53.7 24.9273 54.7049 25.6379C53.6954 26.2291 53.0014 26.5751 52.8715 26.6292C52.4114 26.8422 52.0395 27.2007 51.8167 27.6459C51.5938 28.0911 51.5333 28.5966 51.645 29.0796C51.7567 29.5626 52.0341 29.9944 52.4315 30.3043C52.829 30.6142 53.323 30.7838 53.8327 30.7853C54.1519 30.7853 54.4785 30.7132 54.7865 30.5726C55.5066 30.241 56.2785 29.8481 57.0839 29.3831C57.2692 30.4647 57.1361 31.5751 56.7002 32.5865C56.2642 33.5979 55.543 34.4692 54.6195 35.0999Z" fill="#1AA090"/>
</svg>
