<svg width="58" height="58" viewBox="0 0 58 58" fill="none" xmlns="http://www.w3.org/2000/svg">
<path fill-rule="evenodd" clip-rule="evenodd" d="M25.5 6.00003C20.3283 6.00003 15.3684 8.05449 11.7114 11.7114C8.05446 15.3684 6 20.3283 6 25.5C6 30.6718 8.05446 35.6317 11.7114 39.2886C15.3684 42.9456 20.3283 45 25.5 45C30.6717 45 35.6316 42.9456 39.2886 39.2886C42.9455 35.6317 45 30.6718 45 25.5C45 20.3283 42.9455 15.3684 39.2886 11.7114C35.6316 8.05449 30.6717 6.00003 25.5 6.00003ZM5.75061e-08 25.5C0.000346475 21.4338 0.973093 17.4266 2.83708 13.8128C4.70107 10.199 7.40225 7.08331 10.7153 4.72574C14.0283 2.36817 17.857 0.837058 21.8821 0.260153C25.9072 -0.316752 30.0119 0.0772761 33.8537 1.40936C37.6956 2.74145 41.1632 4.97297 43.9672 7.91774C46.7712 10.8625 48.8303 14.4351 49.9728 18.3376C51.1153 22.24 51.3079 26.3591 50.5347 30.3511C49.7615 34.3431 48.0449 38.0924 45.528 41.286L56.484 52.242C57.0305 52.8078 57.3329 53.5656 57.326 54.3522C57.3192 55.1388 57.0037 55.8913 56.4475 56.4475C55.8912 57.0037 55.1388 57.3192 54.3522 57.326C53.5656 57.3329 52.8078 57.0305 52.242 56.484L41.286 45.528C37.5259 48.492 33.0072 50.3375 28.2472 50.8533C23.4872 51.3691 18.6781 50.5344 14.3703 48.4447C10.0625 46.355 6.43007 43.0947 3.88869 39.0369C1.34732 34.9792 -0.00032143 30.2879 5.75061e-08 25.5ZM22.5 15C22.5 14.2044 22.8161 13.4413 23.3787 12.8787C23.9413 12.3161 24.7044 12 25.5 12C29.0804 12 32.5142 13.4223 35.0459 15.9541C37.5777 18.4858 39 21.9196 39 25.5C39 26.2957 38.6839 27.0587 38.1213 27.6213C37.5587 28.184 36.7956 28.5 36 28.5C35.2044 28.5 34.4413 28.184 33.8787 27.6213C33.3161 27.0587 33 26.2957 33 25.5C33 23.5109 32.2098 21.6033 30.8033 20.1967C29.3968 18.7902 27.4891 18 25.5 18C24.7044 18 23.9413 17.684 23.3787 17.1213C22.8161 16.5587 22.5 15.7957 22.5 15Z" fill="#1AA090"/>
</svg>
